<svg
    width="16px"
    height="18px"
    viewBox="0 0 16 18"
    version="1.1"
    xmlns="http://www.w3.org/2000/svg"
>
    <desc>Created with Sketch.</desc>
    <defs />
    <g
    id="Page-1"
    stroke="none"
    strokeWidth="1"
    fill="none"
    fillRule="evenodd"
    >
    <g
        id="Artboard"
        transform="translate(-70.000000, -17.000000)"
    >
        <g
        id="social-icons"
        transform="translate(13.000000, 15.000000)"
        >
        <g
            id="Group-4"
            transform="translate(56.000000, 0.000000)"
        >
            <rect
            id="Rectangle-Copy-3"
            fill="#D8D8D8"
            opacity="0"
            x="0"
            y="0"
            width="17"
            height="20"
            />
            <path
            d="M3.04,2 C3.62,2 4.11,2.205 4.51,2.615 C4.91,3.025 5.11,3.52 5.11,4.1 C5.11,4.68 4.91,5.17 4.51,5.57 C4.11,5.97 3.62,6.17 3.04,6.17 C2.46,6.17 1.975,5.97 1.585,5.57 C1.195,5.17 1,4.68 1,4.1 C1,3.52 1.195,3.025 1.585,2.615 C1.975,2.205 2.46,2 3.04,2 Z M9.7,7.4 L9.7,7.94 C10.34,7.62 11.06,7.48 11.86,7.52 C12.66,7.56 13.38,7.74 14.02,8.06 C14.7,8.44 15.245,8.99 15.655,9.71 C16.065,10.43 16.27,11.17 16.27,11.93 L16.27,19.01 L12.97,19.01 L12.97,11.93 C12.97,11.77 12.91,11.58 12.79,11.36 C12.67,11.14 12.54,11.01 12.4,10.97 C12.06,10.79 11.73,10.72 11.41,10.76 C11.09,10.8 10.8,10.88 10.54,11 C10.24,11.14 9.96,11.33 9.7,11.57 L9.7,19.01 L6.34,19.01 L6.34,7.4 L9.7,7.4 Z M1.36,19.01 L1.36,7.4 L4.72,7.4 L4.72,19.01 L1.36,19.01 Z"
            id="social-linkedin"
            fill="#FFFFFF"
            fillRule="nonzero"
            />
        </g>
        </g>
    </g>
    </g>
</svg>