<svg xmlns="http://www.w3.org/2000/svg" width="146px" height="29px" viewBox="0 0 146 29">
    <g
        id="Symbols"
        stroke="none"
        strokeWidth="1"
        fill="none"
        fillRule="evenodd"
    >
        <g id="Header" transform="translate(-155.000000, -24.000000)">
        <g
            id="Group-2"
            transform="translate(155.000000, 24.000000)"
        >
            <g
            id="Group"
            transform="translate(2.374623, 5.973227)"
            fill="#FFFFFF"
            >
            <polygon
                id="Shape"
                points="8.77742038 0.726096182 8.77742038 0.726096182 8.65868925 0.845560725"
            />
            <path
                d="M4.88494309,4.59860915 L6.00903769,3.4691262 C6.00903769,3.4691262 6.00903769,3.42878753 5.96889146,3.42878753 L4.96523556,4.43725445 C4.92508933,4.47759312 4.88494309,4.55827048 4.88494309,4.59860915 L4.88494309,4.59860915 Z"
                id="Shape"
            />
            <path
                d="M8.65868925,0.766434859 L5.96889146,3.42878753 C5.96889146,3.42878753 5.96889146,3.4691262 6.00903769,3.4691262 L8.65868925,0.766434859 L8.65868925,0.766434859 Z"
                id="Shape"
            />
            <polygon
                id="Shape"
                points="2.8408639 7.89396875 2.8408639 7.89396875 2.72213277 8.01343329"
            />
            <path
                d="M2.72213277,7.93430743 L0.0323349772,10.5966601 C0.0323349772,10.5966601 0.0323349772,10.6369988 0.0724812128,10.6369988 L2.72213277,7.93430743 L2.72213277,7.93430743 Z"
                id="Shape"
            />
            </g>
            <g id="checks">
            <path
                d="M16.1974859,11.4145309 C16.2965261,11.5143565 16.4308606,11.5704403 16.5707774,11.5704403 C16.7106942,11.5704403 16.8450288,11.5143565 16.944069,11.4145309 C17.4995945,10.8544185 17.8790086,10.4534826 18.2135844,10.0995555 C18.4727096,9.82548885 18.7039235,9.58064388 18.9698914,9.31274827 C19.0808165,9.2011251 19.1368192,9.04539717 19.1225934,8.88803572 C19.1081876,8.73085578 19.025354,8.58801442 18.8966017,8.49853439 C16.4690361,6.81130026 14.01536,1.99335386 13.320818,0.556409738 C13.1861233,0.277987068 12.9232166,0.0939449636 12.6179927,0.0647232883 C12.3142094,0.0351386108 12.0224909,0.165274892 11.8382761,0.412297874 C10.293429,2.48794433 4.89249627,9.48245179 0.253632971,12.3410939 C0.115516898,12.426218 0.0236796135,12.5703298 0.00459186422,12.7322288 C-0.0144958851,12.8941278 0.0411467048,13.0560267 0.155673201,13.1714614 C1.11798388,14.1414032 3.13282187,16.6882265 3.15299006,16.7136367 C3.25239041,16.8395984 3.40293153,16.9134694 3.56283645,16.9143769 L3.56589769,16.9143769 C3.72436203,16.9143769 3.874543,16.8425024 3.97466364,16.7187187 L12.4672715,6.23285629 C13.059712,7.35761854 14.3376909,9.53926163 16.1974859,11.4145309"
                className="check-top"
                fill="#00BE59"
                opacity="0.9"
            />
            <path
                d="M22.2404872,12.282705 C22.1410869,12.1569248 21.9903657,12.0830538 21.8306409,12.0823278 C21.6795595,12.0796053 21.5196546,12.1531133 21.4184535,12.277986 L12.9260257,22.7634854 C12.3335852,21.6387232 11.0557865,19.4570801 9.19581134,17.5819923 C9.0969512,17.4821667 8.96261667,17.4260829 8.82269986,17.4260829 C8.68260298,17.4260829 8.54826845,17.4819852 8.44922824,17.5819923 C7.89190197,18.1433752 7.51212779,18.5455816 7.17683167,18.9000532 C6.91878691,19.1728494 6.6884734,19.4169683 6.42376594,19.6837749 C6.3128409,19.7955796 6.25683817,19.951126 6.27106394,20.108306 C6.28546979,20.2656674 6.36812335,20.4085088 6.49723576,20.4981703 C8.92462124,22.1854045 11.3779372,27.0031694 12.0724792,28.4401135 C12.207354,28.7187176 12.4702607,28.9023968 12.7751245,28.9317999 C12.803576,28.9345224 12.8318475,28.9359745 12.8597588,28.9359745 C13.1327497,28.9359745 13.3879133,28.8083792 13.5550211,28.5840438 C15.0995081,26.5087604 20.4997205,19.5147974 25.1396643,16.6554293 C25.2779604,16.5703053 25.3696176,16.4260119 25.3887054,16.2642944 C25.4077931,16.102214 25.3521505,15.9404965 25.237624,15.8252433 C24.2753134,14.85512 22.2606554,12.3084782 22.2404872,12.282705"
                className="check-bottom"
                fill="#009D63"
                opacity="0.7"
            />
            </g>
            <path
            d="M75.729835,16.8595635 C75.729835,17.5298471 75.6266531,18.1433208 75.4229904,18.682016 C75.220048,19.2188962 74.9421952,19.6762789 74.596815,20.0414591 C74.251975,20.4060948 73.8423087,20.6943186 73.3789806,20.8981443 C72.4530447,21.3050697 71.3391124,21.3041622 70.3980504,20.8977813 C69.9262588,20.6941371 69.507949,20.4013758 69.1546456,20.0282096 C68.8004418,19.6543173 68.5135853,19.1918525 68.3014592,18.6533388 C68.0895131,18.1160956 67.9820095,17.512423 67.9820095,16.8595635 L67.9820095,16.8062022 C67.9820095,16.1533428 68.0895131,15.5547522 68.3012791,15.0265841 C68.5134052,14.4962379 68.8008019,14.0328656 69.1559061,13.6495353 C69.5095697,13.2678385 69.9275193,12.9710842 70.3980504,12.768166 C70.8694818,12.5643403 71.3735064,12.4610662 71.8957184,12.4610662 C72.41703,12.4610662 72.9160126,12.5641588 73.3789806,12.767803 C73.8410482,12.9709027 74.2503543,13.263301 74.5955545,13.6361042 C74.9412949,14.0107225 75.2198679,14.4733687 75.4229904,15.0104305 C75.6266531,15.5489442 75.729835,16.1533428 75.729835,16.8062022 L75.729835,16.8595635 Z M77.2413686,11.2731415 C76.6186758,10.6367987 75.9009044,10.1483793 75.1084027,9.82185883 C74.3153607,9.49497537 73.4837831,9.32908337 72.6370794,9.32908337 C71.4799296,9.32908337 70.4963703,9.59425646 69.7135925,10.1171611 C69.0815359,10.5395141 68.5274509,11.0493507 68.0614217,11.6374142 L68.0614217,4.6332872 L64.5305483,4.6332872 L64.5305483,24.0430136 L67.5991741,24.0430136 C67.8545177,24.0430136 68.0614217,23.8344689 68.0614217,23.5771004 L68.0614217,22.1541318 C68.5141255,22.677581 69.059567,23.1502098 69.6883823,23.5629433 C70.47098,24.0764098 71.4631828,24.3366824 72.6370794,24.3366824 C73.4843233,24.3366824 74.3198626,24.1707904 75.1211879,23.8440885 C75.9243139,23.516479 76.6465872,23.0278781 77.2678394,22.3924427 C77.8889115,21.7579149 78.3905952,20.9674777 78.7593849,20.0432742 C79.1270942,19.1196151 79.3140101,18.0485772 79.3140101,16.8595635 L79.3140101,16.8062022 C79.3140101,15.6157366 79.1227725,14.5443357 78.7456994,13.6212211 C78.3689864,12.6990141 77.862981,11.9089398 77.2413686,11.2731415 L77.2413686,11.2731415 Z"
            className="text"
            fill="#4A4A4A"
            />
            <path
            d="M86.838797,10.2714733 C86.1851317,10.7872994 85.6436518,11.4446964 85.2237213,12.2315036 L85.2237213,10.0887017 C85.2237213,9.83133318 85.0166373,9.62278843 84.7612936,9.62278843 L81.6926678,9.62278843 L81.6926678,24.0430499 L85.2237213,24.0430499 L85.2237213,18.5141638 C85.2237213,17.5928642 85.3366272,16.7842769 85.5593776,16.1112709 C85.7797871,15.4440729 86.0977962,14.8803305 86.5040411,14.4360158 C86.9086654,13.9944237 87.3961233,13.6584651 87.9529093,13.4372153 C88.5138371,13.214695 89.1437328,13.1018013 89.8256696,13.1018013 L90.1748314,13.1018013 L90.1748314,9.36251587 L90.0181678,9.35598183 C88.747572,9.29899049 87.6784779,9.60935735 86.838797,10.2714733"
            className="text"
            fill="#4A4A4A"
            />
            <path
            d="M102.751929,16.9127434 C102.751929,17.4955434 102.657211,18.0562002 102.470655,18.5783789 C102.28428,19.098561 102.010208,19.5602998 101.656365,19.9505271 C101.303421,20.3407544 100.871246,20.6554773 100.372083,20.8859837 C99.8747214,21.1150381 99.3053302,21.2313803 98.6795762,21.2313803 C98.0885762,21.2313803 97.5370123,21.1150381 97.0400105,20.8861652 C96.541208,20.6558403 96.1047108,20.3365799 95.7424037,19.9369145 C95.378476,19.5367046 95.0908992,19.0646203 94.8872366,18.5346371 C94.683934,18.0050169 94.5807521,17.441456 94.5807521,16.8595635 L94.5807521,16.8062022 C94.5807521,16.2052521 94.6754706,15.6358832 94.8622064,15.1140676 C95.0475016,14.5957005 95.3210327,14.1390437 95.6750564,13.7564394 C96.0289001,13.3741981 96.4612556,13.0636498 96.9605983,12.8327804 C97.45742,12.6039075 98.0178075,12.4875653 98.6264546,12.4875653 C99.2347416,12.4875653 99.7953091,12.6039075 100.292671,12.8327804 C100.791474,13.0636498 101.228511,13.3787357 101.591538,13.770052 C101.954566,14.1615499 102.241962,14.6285522 102.445445,15.1576278 C102.648748,15.687611 102.751929,16.2600655 102.751929,16.8595635 L102.751929,16.9127434 Z M104.130389,11.525791 C103.457456,10.8475215 102.646947,10.3057407 101.721191,9.91551339 C100.795435,9.52655656 99.7718996,9.32908337 98.6795762,9.32908337 C97.5870726,9.32908337 96.563357,9.53091258 95.6367008,9.92948897 C94.7125656,10.3275209 93.9022367,10.8736576 93.2291234,11.5524717 C92.5551098,12.2318303 92.0177716,13.0347911 91.6322351,13.938848 C91.2456181,14.8445385 91.0495185,15.8273669 91.0495185,16.8595635 L91.0495185,16.9127434 C91.0495185,17.9262454 91.2409362,18.8996358 91.6183695,19.8055077 C91.9959828,20.7121057 92.5291792,21.510892 93.2033729,22.180631 C93.8768464,22.850733 94.6869953,23.3877947 95.6114906,23.7767515 C96.5365261,24.1658899 97.551058,24.3633631 98.6264546,24.3633631 C99.7189581,24.3633631 100.747176,24.1615339 101.682475,23.7633205 C102.615794,23.3652886 103.430445,22.8189703 104.103738,22.1399747 C104.777392,21.4609792 105.31455,20.6580183 105.700447,19.7530539 C106.087063,18.847182 106.283163,17.8737916 106.283163,16.8595635 L106.283163,16.8062022 C106.283163,15.7747315 106.091745,14.7968037 105.714132,13.8992808 C105.336699,13.0030284 104.803863,12.2044236 104.130389,11.525791 L104.130389,11.525791 Z"
            className="text"
            fill="#4A4A4A"
            />
            <path
            d="M145.80505,9.35599998 C144.533914,9.29900864 143.46536,9.6093755 142.62604,10.2714915 C141.972014,10.7873176 141.430714,11.4447145 141.010784,12.2315217 L141.010784,10.0887199 C141.010784,9.83135133 140.80388,9.62280658 140.548536,9.62280658 L137.47955,9.62280658 L137.47955,24.0430681 L141.010784,24.0430681 L141.010784,18.5141819 C141.010784,17.5928824 141.12369,16.784295 141.34644,16.111289 C141.56685,15.444091 141.884679,14.8803486 142.290924,14.436034 C142.695728,13.9944418 143.183546,13.6581203 143.739972,13.4372335 C144.30072,13.2147131 144.930795,13.1018195 145.612912,13.1018195 L145.961894,13.1018195 L145.961894,9.36253402 L145.80505,9.35599998 Z"
            className="text"
            fill="#4A4A4A"
            />
            <path
            d="M49.2745206,15.6806958 C49.4297436,14.702042 49.8023149,13.8939991 50.3828706,13.2768954 C50.9925981,12.6292995 51.7764563,12.3009641 52.7130166,12.3009641 C53.216681,12.3009641 53.6708254,12.3904441 54.0626645,12.5668631 C54.4537833,12.7431007 54.7961023,12.9942982 55.0798975,13.3133771 C55.3654934,13.6355416 55.5956269,14.0185089 55.7643554,14.451389 C55.913636,14.8359898 56.0186186,15.2487232 56.0766021,15.6806958 L49.2745206,15.6806958 Z M57.884176,11.6586317 C57.3160453,10.9502329 56.593592,10.378323 55.736444,9.9594185 C54.8785757,9.54105849 53.8701663,9.32906522 52.7394873,9.32906522 C51.7150514,9.32906522 50.7658861,9.52726441 49.9177417,9.91785475 C49.0717583,10.3084451 48.3278763,10.8511334 47.7078846,11.5308549 C47.0873526,12.210395 46.5997147,13.0135373 46.2586562,13.9185018 C45.9175977,14.8229217 45.7450877,15.8033906 45.7450877,16.8328647 L45.7450877,16.8862261 C45.7450877,17.9886637 45.9365054,19.0112408 46.3137586,19.9250988 C46.6910117,20.8402273 47.2152045,21.6350206 47.8721112,22.2876985 C48.5290179,22.9407394 49.3132363,23.4554765 50.2026174,23.8173896 C51.0921785,24.1796658 52.0615121,24.3633449 53.0837871,24.3633449 C54.3921983,24.3633449 55.5351223,24.1148699 56.4814065,23.6246355 C57.0129823,23.3487538 57.8560846,22.6532417 58.3183322,22.2570248 C58.504888,22.0971223 58.5358605,21.8186997 58.3885607,21.621408 L56.9170033,19.6508506 L56.8087794,19.7564843 C56.258476,20.2937275 55.6939468,20.705735 55.130498,20.9808906 C54.5733518,21.2531423 53.9025795,21.3912646 53.1365485,21.3912646 C52.1391236,21.3912646 51.2789143,21.0943288 50.5802307,20.5086248 C49.9229638,19.957769 49.4949301,19.1631572 49.3060334,18.1452991 L59.5318449,18.1452991 L59.5478714,17.9982832 C59.5655186,17.8354768 59.5786639,17.6773893 59.5882078,17.5231134 C59.5970314,17.368656 59.6017133,17.2185546 59.6017133,17.0729907 C59.6017133,16.048054 59.4567544,15.0574211 59.1707983,14.1288615 C58.8830415,13.1963089 58.4503258,12.3650339 57.884176,11.6586317 L57.884176,11.6586317 Z"
            className="text"
            fill="#4A4A4A"
            />
            <path
            d="M35.7345356,15.1163545 C35.9290146,14.5952649 36.1991242,14.1369746 36.5376617,13.7536443 C36.873498,13.372129 37.2840647,13.0619437 37.7571167,12.8316188 C38.2269275,12.6032904 38.7460782,12.4876742 39.3010635,12.4876742 C40.0789794,12.4876742 40.7416484,12.6463062 41.2699829,12.9586695 C41.787513,13.2654064 42.2890166,13.6659793 42.760448,14.1496797 L42.8778557,14.2701964 L44.8037375,12.2722324 C44.987052,12.0820193 44.9767878,11.7756454 44.7797878,11.5997709 C44.2676599,11.1422066 43.3192148,10.3307153 42.6976025,10.0141774 C41.8044399,9.55969865 40.6705195,9.32901077 39.3275343,9.32901077 C38.2694247,9.32901077 37.2719998,9.53138448 36.3628107,9.92996088 C35.4559625,10.3283558 34.6634608,10.875037 34.0076345,11.5540326 C33.3518082,12.2330282 32.8322973,13.0412525 32.4642279,13.9554735 C32.0961585,14.8689685 31.9096027,15.8459889 31.9096027,16.8594909 L31.9096027,16.9126708 C31.9096027,17.9261728 32.0961585,18.8993817 32.4642279,19.8043461 C32.8326575,20.7103996 33.3521684,21.5093673 34.0085349,22.1789249 C34.6645412,22.8493899 35.452361,23.3866331 36.3503856,23.7763159 C37.2494906,24.1656358 38.2422337,24.3632905 39.3010635,24.3632905 C39.9974062,24.3632905 40.6339647,24.2945016 41.1930917,24.1585572 C41.7500578,24.0226129 42.2692086,23.8342148 42.7368584,23.5986264 C43.2032478,23.3635825 43.6411856,23.0786258 44.0382468,22.7511978 C44.2932303,22.5406565 44.5467732,22.2999861 44.8366909,21.9934308 L44.9310492,21.8936052 L43.2075695,19.5228379 L43.0872807,19.4014137 L42.9714937,19.5181189 C42.4721509,20.0214214 41.9358932,20.4390554 41.3778467,20.7592233 C40.831865,21.0723127 40.186483,21.2313077 39.459888,21.2313077 C38.8692482,21.2313077 38.3223662,21.11551 37.8347282,20.8866371 C37.3445692,20.6564937 36.9165355,20.3415893 36.5623317,19.9504545 C36.2074076,19.5591381 35.9290146,19.0923173 35.7347157,18.5636047 C35.5395164,18.0339845 35.4402961,17.4606226 35.4402961,16.8594909 L35.4402961,16.8063111 C35.4402961,16.2062685 35.5393363,15.6376256 35.7345356,15.1163545"
            className="text"
            fill="#4A4A4A"
            />
            <path
            d="M124.939691,15.6806958 C125.094734,14.702042 125.467306,13.8939991 126.047861,13.2768954 C126.657769,12.6292995 127.441627,12.3009641 128.378187,12.3009641 C128.881852,12.3009641 129.335996,12.3904441 129.727655,12.5668631 C130.118774,12.7431007 130.461093,12.9942982 130.744888,13.3133771 C131.030664,13.6355416 131.260798,14.0185089 131.429346,14.451389 C131.578807,14.8359898 131.683609,15.2487232 131.741593,15.6806958 L124.939691,15.6806958 Z M133.549167,11.6586317 C132.981216,10.9502329 132.258763,10.378323 131.401435,9.9594185 C130.543566,9.54105849 129.535337,9.32906522 128.404478,9.32906522 C127.380222,9.32906522 126.430877,9.52726441 125.582912,9.91785475 C124.736749,10.3084451 123.993047,10.8511334 123.372875,11.5308549 C122.752523,12.210395 122.264885,13.0135373 121.923827,13.9185018 C121.582768,14.8229217 121.410078,15.8033906 121.410078,16.8328647 L121.410078,16.8862261 C121.410078,17.9886637 121.601496,19.0112408 121.978749,19.9250988 C122.356002,20.8402273 122.880375,21.6350206 123.537282,22.2876985 C124.194189,22.9407394 124.978227,23.4554765 125.867608,23.8173896 C126.757349,24.1796658 127.726683,24.3633449 128.748778,24.3633449 C130.057189,24.3633449 131.200293,24.1148699 132.146577,23.6246355 C132.678153,23.3487538 133.521255,22.6532417 133.983503,22.2570248 C134.170059,22.0971223 134.201031,21.8186997 134.053731,21.621408 L132.581994,19.6508506 L132.47395,19.7564843 C131.923647,20.2937275 131.358937,20.705735 130.795489,20.9808906 C130.238342,21.2531423 129.56757,21.3912646 128.801539,21.3912646 C127.804114,21.3912646 126.943905,21.0943288 126.245221,20.5086248 C125.587955,19.957769 125.160101,19.1631572 124.971204,18.1452991 L135.197016,18.1452991 L135.212862,17.9982832 C135.230509,17.8354768 135.243835,17.6773893 135.253198,17.5231134 C135.262202,17.368656 135.266884,17.2185546 135.266884,17.0729907 C135.266884,16.048054 135.121925,15.0574211 134.835969,14.1288615 C134.548032,13.1963089 134.115497,12.3650339 133.549167,11.6586317 L133.549167,11.6586317 Z"
            className="text"
            fill="#4A4A4A"
            />
            <path
            d="M121.757385,9.63799822 L117.60724,9.63799822 C117.478668,9.63799822 117.355858,9.69172255 117.267983,9.78628461 L111.84202,15.6298937 L111.84202,4.64853329 L108.311327,4.64853329 L108.311327,24.0582597 L111.379592,24.0582597 C111.635116,24.0582597 111.84202,23.849715 111.84202,23.5923464 L111.84202,19.9300175 L113.617361,18.0681793 L117.762103,24.0582597 L121.86687,24.0582597 L116.020256,15.5583822 L121.757385,9.63799822 Z"
            className="text"
            fill="#4A4A4A"
            />
        </g>
        </g>
    </g>
</svg>