<svg xmlns="http://www.w3.org/2000/svg" width="64" height="64" viewBox="0 0 64 64"><g fill="none" fill-rule="evenodd"><ellipse cx="31.906" cy="31.957" fill="#95D3F4" fill-opacity=".306" rx="31.79" ry="31.455"/><path fill="#B3BDC4" fill-rule="nonzero" d="M34.347 16.864h-5.092c-2.482-.049-4.535 1.93-4.592 4.425v.96h2.212v-.96a2.299 2.299 0 0 1 2.384-2.2h5.088a2.299 2.299 0 0 1 2.384 2.2v.96h2.212v-.96c-.057-2.497-2.113-4.476-4.596-4.425z"/><rect width="31.041" height="22.996" x=".429" y=".364" fill="#42A5F5" fill-rule="nonzero" rx="2.842" opacity=".2" transform="translate(15.456 22.138)"/><path fill="#42A5F5" fill-rule="nonzero" d="M44.46 21.179H19.141a4.156 4.156 0 0 0-2.947 1.233 4.203 4.203 0 0 0-1.215 2.967v8.631c0-2.306 33.644-2.306 33.644 0v-8.63a4.203 4.203 0 0 0-1.216-2.968 4.156 4.156 0 0 0-2.947-1.233z"/><path fill="#4294D8" fill-rule="nonzero" d="M14.979 33.511v9.11c.002 2.312 1.864 4.184 4.162 4.187h25.32c2.297-.003 4.16-1.875 4.162-4.186v-9.11c0-2.312-33.644-2.312-33.644 0z"/><path fill="#95D3F4" fill-rule="nonzero" d="M38.128 26.755a.476.476 0 0 0-.362-.177.476.476 0 0 0-.367.173l-7.539 9.292a19.977 19.977 0 0 0-3.309-4.589.475.475 0 0 0-.663 0c-.477.48-1.564 1.626-1.797 1.86a.481.481 0 0 0 .066.72c2.156 1.496 4.335 5.754 4.95 7.034a.773.773 0 0 0 .624.437h.077c.242 0 .47-.116.615-.312 1.373-1.837 6.165-8.032 10.285-10.549a.48.48 0 0 0 .085-.733c-.858-.878-2.646-3.132-2.665-3.156z"/></g></svg>