<svg xmlns="http://www.w3.org/2000/svg" width="64" height="64" viewBox="0 0 64 64"><g fill="none" fill-rule="evenodd"><circle cx="31.79" cy="31.79" r="31.79" fill="#19C27F" fill-opacity=".205"/><path d="M31.475 39.606H28.11a4.685 4.685 0 0 0 3.958 2.285h10.978c2.679-.093 4.82-2.312 4.88-5.057v-.132c0-.156 0-.305-.032-.45-.246-2.477-2.264-4.373-4.695-4.413h-3.282c-.506 4.395-4.12 7.72-8.44 7.767z"/><path d="M37.026 31.84h-4c-2.333.08-4.336 1.717-4.917 4.02h4c2.334-.08 4.336-1.718 4.917-4.02zm-4.364-3.75h3.374a4.673 4.673 0 0 0-3.962-2.282h-10.98c-2.676.095-4.815 2.31-4.875 5.049v.127c0 .157 0 .305.032.453.032.149.032.264.056.412.417 2.295 2.357 3.972 4.638 4.011h3.278c.498-4.394 4.114-7.723 8.439-7.77z"/><path fill="#19C27F" fill-rule="nonzero" d="M32.197 35.344h-3.932c-.1.347-.153.703-.156 1.062v.115c0 .142 0 .277.033.412.033.134.033.239.057.373a4.4 4.4 0 0 0 .696 1.57h3.45c4.422-.035 8.127-3.05 8.645-7.037h-3.965c-.576 2.01-2.541 3.437-4.828 3.505z"/><path fill="#19C27F" fill-rule="nonzero" d="M23.965 36.245c.003-.366.03-.73.08-1.092h-3.271c-2.286-.04-4.226-1.659-4.636-3.87a3.754 3.754 0 0 1-.056-.396c-.012-.142-.028-.285-.032-.435v-.123c.077-2.617 2.207-4.726 4.869-4.819H31.89a4.71 4.71 0 0 1 3.964 2.192h4.144a8.418 8.418 0 0 0-2.595-3.873l-.202-.166-.297-.226a8.422 8.422 0 0 0-5.014-1.65H20.774c-4.747.057-8.554 3.875-8.518 8.542v.052a8.255 8.255 0 0 0 1.36 4.57c1.537 2.435 4.243 3.918 7.158 3.925h3.597a8.36 8.36 0 0 1-.402-2.58l-.004-.051z"/><path fill="#5BD672" fill-rule="nonzero" d="M51.865 35.492a8.414 8.414 0 0 0-2.962-5.63l-.201-.167-.298-.226a8.418 8.418 0 0 0-5.01-1.65h-3.62a8.452 8.452 0 0 1 .41 2.58v.052c-.004.366-.031.73-.08 1.093h3.27c2.43.038 4.446 1.858 4.692 4.237 0 .142.028.285.032.431v.127c-.06 2.633-2.197 4.762-4.872 4.854H32.253A4.72 4.72 0 0 1 28.298 39h-4.153c.227.698.548 1.364.954 1.98 1.538 2.436 4.243 3.92 7.158 3.927h11.114c4.748-.057 8.556-3.88 8.518-8.552v-.052c0-.233-.024-.49-.024-.811z"/><path fill="#5BD672" fill-rule="nonzero" d="M31.952 31.335h3.927c.1-.347.153-.703.157-1.061v-.12c0-.142 0-.277-.033-.407a4.349 4.349 0 0 0-.746-1.929H31.8c-4.423.035-8.127 3.05-8.645 7.037h3.947c.573-2.023 2.55-3.458 4.85-3.52z"/><path fill="#027A60" fill-rule="nonzero" d="M35.677 30.023c0 .154.024.308.028.466v.137c-.003.41-.048.817-.133 1.213h3.349c.049-.39.078-.784.087-1.18v-.055c0-.265 0-.547-.038-.893a11.083 11.083 0 0 0-.318-1.893h-3.607a6.09 6.09 0 0 1 .632 2.205zm-9.15 7.075a4.986 4.986 0 0 1-.049-.427c-.01-.154-.024-.308-.028-.47v-.133c.003-.41.048-.817.133-1.213h-3.358c-.044.39-.067.785-.07 1.18v.055c-.002.945.116 1.885.35 2.786h3.613a6.014 6.014 0 0 1-.59-1.778z"/></g></svg>