<svg
    width="10px"
    height="19px"
    viewBox="0 0 10 19"
    version="1.1"
    xmlns="http://www.w3.org/2000/svg"
>
    <desc>Created with Sketch.</desc>
    <defs />
    <g
    id="Page-1"
    stroke="none"
    strokeWidth="1"
    fill="none"
    fillRule="evenodd"
    >
    <g
        id="Artboard"
        transform="translate(-36.000000, -16.000000)"
    >
        <g
        id="social-icons"
        transform="translate(13.000000, 15.000000)"
        >
        <g
            id="Group-2"
            transform="translate(22.000000, 0.000000)"
        >
            <rect
            id="Rectangle"
            fill="#D8D8D8"
            opacity="0"
            x="0"
            y="0"
            width="12"
            height="20"
            />
            <path
            d="M3.82,7.33 L3.82,5.59 C3.82,4.95 3.93,4.35 4.15,3.79 C4.37,3.23 4.67,2.745 5.05,2.335 C5.43,1.925 5.875,1.6 6.385,1.36 C6.895,1.12 7.44,1 8.02,1 L10.84,1 L10.84,4.45 L8.02,4.45 C7.86,4.45 7.705,4.555 7.555,4.765 C7.405,4.975 7.33,5.23 7.33,5.53 L7.33,7.33 L10.84,7.33 L10.84,10.84 L7.33,10.84 L7.33,19.36 L3.82,19.36 L3.82,10.84 L1,10.84 L1,7.33 L3.82,7.33 Z"
            id="social-facebook"
            fill="#FFFFFF"
            fillRule="nonzero"
            />
        </g>
        </g>
    </g>
    </g>
</svg>