<svg xmlns="http://www.w3.org/2000/svg" width="64" height="64" viewBox="0 0 64 64"><g fill="none" fill-rule="evenodd"><circle cx="31.79" cy="31.79" r="31.79" fill="#FA0" fill-opacity=".235"/><path fill="#A97C50" fill-rule="nonzero" d="M16.496 45.133a2.44 2.44 0 0 1-2.25-1.503 2.43 2.43 0 0 1 .527-2.65l14.4-14.37c.952-.95 1.503 0 2.475.97.971.97 1.923 1.5.971 2.469l-14.4 14.37a2.432 2.432 0 0 1-1.723.714z"/><rect width="5.866" height="18.916" x="18.122" y="28.469" fill="#FA0" fill-rule="nonzero" transform="rotate(-135 21.055 37.927)" rx="1.118"/><path fill="#A97C50" fill-rule="nonzero" d="M46.155 25.68l-.215-.201a1.37 1.37 0 0 0-1.674-.182L33.271 14.524a1.302 1.302 0 0 0-.185-1.641l-.24-.24a1.363 1.363 0 0 0-.954-.388c-.358 0-.701.14-.955.388l-7.456 7.307a1.309 1.309 0 0 0-.396.935c0 .35.143.687.396.935l.215.211a1.37 1.37 0 0 0 1.664.186l10.995 10.774c-.333.522-.254 1.2.19 1.636l.215.21c.253.248.596.388.954.388s.702-.14.955-.388l7.486-7.282c.253-.248.396-.584.396-.935 0-.351-.143-.688-.396-.936"/><path fill="#EAAB50" fill-rule="nonzero" d="M25.342 22.386L33.23 14.507 44.294 25.519 36.421 33.423z"/><path fill="#A97C50" fill-rule="nonzero" d="M50.612 45.358c0 .873-4.04 1.577-9.025 1.577s-9.025-.704-9.025-1.577v-1.18c1.485 0 5.262-.396 9.025-.396 3.762 0 9.025.145 9.025.387-.005 0 0 .98 0 1.19z"/><ellipse cx="41.587" cy="44.007" fill="#EAAB50" fill-rule="nonzero" rx="9.025" ry="1.576"/><path fill="#A97C50" fill-rule="nonzero" d="M49.258 43.785c0 .745-3.332 1.348-7.445 1.348-4.114 0-7.446-.603-7.446-1.348v-1.013c1.225 0 4.338-.341 7.446-.341 3.107 0 7.44.127 7.44.331l.005 1.023z"/><ellipse cx="41.813" cy="42.881" fill="#EAAB50" fill-rule="nonzero" rx="7.446" ry="1.351"/></g></svg>