<svg
    width="18px"
    height="15px"
    viewBox="0 0 18 15"
    version="1.1"
    xmlns="http://www.w3.org/2000/svg"
>
    <desc>Created with Sketch.</desc>
    <defs />
    <g
    id="Page-1"
    stroke="none"
    strokeWidth="1"
    fill="none"
    fillRule="evenodd"
    >
    <g
        id="Artboard"
        transform="translate(-50.000000, -18.000000)"
    >
        <g
        id="social-icons"
        transform="translate(13.000000, 15.000000)"
        >
        <g
            id="Group-3"
            transform="translate(36.000000, 0.000000)"
        >
            <rect
            id="Rectangle-Copy-2"
            fill="#D8D8D8"
            opacity="0"
            x="0"
            y="0"
            width="19"
            height="20"
            />
            <path
            d="M18.61,4.71 C18.13,5.41 17.53,6.04 16.81,6.6 L16.81,7.02 C16.81,8.22 16.585,9.435 16.135,10.665 C15.685,11.895 15.025,13.005 14.155,13.995 C13.285,14.985 12.215,15.79 10.945,16.41 C9.675,17.03 8.21,17.34 6.55,17.34 C5.55857519,17.3442659 4.57227763,17.1975858 3.625,16.905 C2.695,16.615 1.82,16.21 1,15.69 C1.14,15.71 1.28,15.72 1.42,15.72 L1.87,15.72 C3.59,15.72 5.08,15.21 6.34,14.19 C5.57379253,14.1817327 4.83120882,13.9236716 4.225,13.455 C3.63070719,13.0075658 3.19458038,12.3822756 2.98,11.67 C3.22,11.73 3.44,11.76 3.64,11.76 C3.96383172,11.7614965 4.28650069,11.7211629 4.6,11.64 C3.78365218,11.4741538 3.04821523,11.035008 2.515,10.395 C1.965,9.745 1.69,8.98 1.69,8.1 L1.69,8.07 C1.93,8.19 2.185,8.29 2.455,8.37 C2.725,8.45 3.03,8.49 3.37,8.49 C2.85,8.17 2.45,7.75 2.17,7.23 C1.88614709,6.69445609 1.7417071,6.09606187 1.75,5.49 C1.75,4.85 1.91,4.24 2.23,3.66 C3.13,4.78 4.22,5.675 5.5,6.345 C6.79041801,7.0177806 8.21552132,7.39199838 9.67,7.44 C9.50357466,6.70264194 9.5717526,5.93170673 9.865,5.235 C10.055,4.785 10.315,4.395 10.645,4.065 C10.975,3.735 11.355,3.475 11.785,3.285 C12.215,3.095 12.68,3 13.18,3 C13.72,3 14.21,3.105 14.65,3.315 C15.09,3.525 15.48,3.8 15.82,4.14 C16.22,4.08 16.62,3.97 17.02,3.81 C17.42,3.65 17.79,3.48 18.13,3.3 C17.81,4.14 17.28,4.8 16.54,5.28 C16.92,5.24 17.28,5.17 17.62,5.07 C17.96,4.97 18.29,4.85 18.61,4.71 Z"
            id="social-twitter"
            fill="#FFFFFF"
            fillRule="nonzero"
            />
        </g>
        </g>
    </g>
    </g>
</svg>