<svg xmlns="http://www.w3.org/2000/svg" width="64" height="64" viewBox="0 0 64 64"><g fill="none" fill-rule="evenodd"><circle cx="31.79" cy="31.79" r="31.79" fill="#FF4E4A" fill-opacity=".207"/><ellipse cx="12.807" cy="12.508" fill="#FF4E4A" fill-rule="nonzero" rx="12.493" ry="12.384" opacity=".22" transform="translate(19.351 15.257)"/><path fill="#BC283D" fill-rule="nonzero" d="M28.79 49.491L24.612 46.128 19.225 46.041 22.531 37.031 31.883 41.076z"/><path fill="#BC283D" fill-rule="nonzero" d="M35.726 49.491L32.638 41.076 41.984 37.026 45.295 46.041 39.908 46.128z"/><path fill="#FF4E4A" fill-rule="nonzero" d="M32.26 41.81c-7.664 0-13.877-6.16-13.877-13.756 0-7.597 6.213-13.756 13.877-13.756 7.664 0 13.877 6.159 13.877 13.756-.008 7.594-6.216 13.748-13.877 13.756zm0-25.492c-6.539 0-11.84 5.254-11.84 11.736 0 6.481 5.301 11.736 11.84 11.736S44.1 34.535 44.1 28.054c-.008-6.479-5.304-11.728-11.84-11.736z"/><path fill="#FFFCEE" fill-rule="nonzero" d="M32.26 36.273c-3.353 0-6.377-2.003-7.66-5.074a8.167 8.167 0 0 1 1.797-8.957 8.345 8.345 0 0 1 9.036-1.782c3.099 1.273 5.119 4.27 5.119 7.594-.006 4.537-3.715 8.213-8.292 8.219z"/><path fill="#FECE61" fill-rule="nonzero" d="M32.342 21.644L34.264 25.511 38.567 26.13 35.455 29.138 36.191 33.389 32.342 31.384 28.49 33.389 29.225 29.138 26.113 26.13 30.416 25.511z"/></g></svg>