<svg xmlns="http://www.w3.org/2000/svg" width="23" height="39" viewBox="0 0 23 39">
  <path fill="#FFFFFF" fill-rule="evenodd" d="M22.8000003,11 L38.1999997,11 C40.2986819,11 42,12.7013181 42,14.8000003 L42,46.1999997 C42,48.2986819 40.2986819,50 38.1999997,50 L22.8000003,50 C20.7013181,50 19,48.2986819 19,46.1999997 L19,14.8000003 C19,12.7013181 20.7013181,11 22.8000003,11 Z M22.1452991,16.1734694 L22.1452991,42.4387755 L38.8547009,42.4387755 L38.8547009,16.1734694 L22.1452991,16.1734694 Z M30.5,48.0102041 C31.6399724,48.0102041 32.5641026,47.074799 32.5641026,45.9209184 C32.5641026,44.7670377 31.6399724,43.8316327 30.5,43.8316327 C29.3600276,43.8316327 28.4358974,44.7670377 28.4358974,45.9209184 C28.4358974,47.074799 29.3600276,48.0102041 30.5,48.0102041 Z" transform="translate(-19 -11)"/>
</svg>
