<svg
    width="18px"
    height="18px"
    viewBox="0 0 18 18"
    version="1.1"
    xmlns="http://www.w3.org/2000/svg"
>
    <desc>Created with Sketch.</desc>
    <defs />
    <g
    id="Page-1"
    stroke="none"
    strokeWidth="1"
    fill="none"
    fillRule="evenodd"
    >
    <g
        id="Artboard"
        transform="translate(-14.000000, -16.000000)"
    >
        <g
        id="social-icons"
        transform="translate(13.000000, 15.000000)"
        >
        <g id="Group">
            <rect
            id="Rectangle-Copy"
            fill="#D8D8D8"
            opacity="0"
            x="0"
            y="0"
            width="20"
            height="20"
            />
            <path
            d="M6.73699914,6.73470673 C5.8712735,7.60062 5.38587233,8.77554822 5.388,10 C5.38587233,11.2244518 5.8712735,12.39938 6.73699914,13.2652933 C7.60272479,14.1312065 8.77754779,14.6168623 10.002,14.615 C11.2264522,14.6168623 12.4012752,14.1312065 13.2670009,13.2652933 C14.1327265,12.39938 14.6181277,11.2244518 14.616,10 C14.6181277,8.77554822 14.1327265,7.60062 13.2670009,6.73470673 C12.4012752,5.86879346 11.2264522,5.38313768 10.002,5.385 C8.77754779,5.38313768 7.60272479,5.86879346 6.73699914,6.73470673 Z M10.002,13 C8.352,13 7.002,11.655 7.002,10 C7.002,8.345 8.348,7 10.002,7 C11.656,7 13.002,8.345 13.002,10 C13.002,11.655 11.652,13 10.002,13 Z M14.805,6.273 C14.2107416,6.273 13.729,5.79125839 13.729,5.197 C13.729,4.60274161 14.2107416,4.121 14.805,4.121 C15.3992584,4.121 15.881,4.60274161 15.881,5.197 C15.881,5.795 15.399,6.273 14.805,6.273 Z M18.937,6.289 C18.868,4.847 18.539,3.569 17.483,2.517 C16.431,1.465 15.154,1.136 13.713,1.063 C12.227,0.979 7.773,0.979 6.288,1.063 C4.85,1.132 3.573,1.461 2.517,2.513 C1.46,3.566 1.136,4.843 1.063,6.285 C0.979,7.771 0.979,12.225 1.063,13.711 C1.132,15.153 1.461,16.431 2.517,17.483 C3.573,18.535 4.846,18.864 6.287,18.937 C7.773,19.021 12.227,19.021 13.712,18.937 C15.154,18.868 16.431,18.539 17.483,17.483 C18.535,16.43 18.864,15.153 18.937,13.711 C19.021,12.225 19.021,7.775 18.937,6.289 Z M15.307,17.016 C14.122,17.486 11.311,17.378 10.002,17.378 C8.692,17.378 5.878,17.483 4.697,17.017 C3.91465449,16.7080765 3.29546604,16.088526 2.987,15.306 C2.517,14.121 2.625,11.309 2.625,10 C2.625,8.69 2.521,5.875 2.987,4.694 C3.29569567,3.91185277 3.91485277,3.29269567 4.697,2.984 C5.882,2.514 8.693,2.622 10.002,2.622 C11.312,2.622 14.126,2.517 15.307,2.983 C16.094,3.296 16.7,3.903 17.017,4.694 C17.487,5.879 17.379,8.691 17.379,10 C17.379,11.31 17.487,14.125 17.017,15.306 C16.7083043,16.0881472 16.0891472,16.7073043 15.307,17.016 Z"
            id="social-instagram"
            fill="#FFFFFF"
            fillRule="nonzero"
            />
        </g>
        </g>
    </g>
    </g>
</svg>