<svg xmlns="http://www.w3.org/2000/svg" width="27" height="24" viewBox="0 0 27 24"><g fill="none"><path fill="#5BD672" d="M15.305 23.91c-2.616-.388-4.993-2.049-5.029-4.83-.016-1.383.572-2.633 1.41-3.766a15.97 15.97 0 0 1 3.596-3.473c-2.436.474-4.872 2.548-6.065 5.525a4.551 4.551 0 0 1-1.511-3.852c.22-1.998 1.727-3.397 3.702-3.842 2.77-.631 4.28-2.598 4.63-5.23.026-.187.108-.42.3-.417a.37.37 0 0 1 .174.063c1.269.754 1.962 2.481 2.315 3.788.566 2.115.618 4.259-.203 6.345-.716 1.822-1.854 3.347-3.662 4.281-.608.316-1.337.41-2.05.632-.288.082.248.966.327 1.076.345.448.82.787 1.363.976 4.46 1.632 8.643-2.482 9.624-6.365a9.307 9.307 0 0 0-.504-6.096c-.934-2.257-2.7-4.102-4.957-5.18a10.396 10.396 0 0 0-6.082-.998c-2.535.305-4.865 1.503-6.54 3.365A9.585 9.585 0 0 0 3.66 11.4a8.649 8.649 0 0 0 .105 2.876.354.354 0 0 1-.268.376c-.583.183-1.178.316-1.786.477a.394.394 0 0 1-.302-.045.37.37 0 0 1-.172-.243c-.58-2.836-.09-5.78 1.383-8.296C5.61 1.42 12.068-1.216 17.925.546a13.05 13.05 0 0 1 5.837 3.684c4.06 4.476 4.417 11.4.415 16.037-1.91 2.21-4.8 3.788-7.848 3.732a8.152 8.152 0 0 1-1.024-.089z"/><rect width="7" height="6" x="1" y="17" fill="#5BD672" transform="rotate(-16.34 4.5 20)" rx="2.61"/><rect width="3" height="1" x="3" y="21" fill="#B3BDC4" transform="rotate(73.66 4.5 21.5)" rx=".5"/><rect width="3" height="1" x="6" y="20" fill="#B3BDC4" transform="rotate(73.66 7.5 20.5)" rx=".5"/></g></svg>