<svg xmlns="http://www.w3.org/2000/svg" width="28" height="29" viewBox="0 0 28 29">
  <g fill="none" fill-rule="evenodd">
    <path fill="#FFFFFF" d="M3,0 L25,0 C26.6568542,-3.04359188e-16 28,1.34314575 28,3 L28,26 C28,27.6568542 26.6568542,29 25,29 L3,29 C1.34314575,29 2.02906125e-16,27.6568542 0,26 L0,3 C-2.02906125e-16,1.34314575 1.34314575,3.04359188e-16 3,0 Z"/>
    <path stroke="#0F86B8" stroke-width="2" d="M4.47619048 6L23.5238095 6M4.47619048 10L23.5238095 10M4.35714286 14L18.6428571 14M4.21428571 19L12.7857143 19M4.45238095 24L22.547619 24" stroke-linecap="square"/>
  </g>
</svg>
