<svg xmlns="http://www.w3.org/2000/svg" width="38" height="29" viewBox="0 0 38 29">
  <path fill="#FFFFFF" fill-rule="evenodd" d="M11.2426653,41.1839399 C11.0864962,40.820711 11,40.4204567 11,40 L11,17 C11,16.3946395 11.179301,15.8311569 11.4876932,15.3597622 L27.2365141,29.6000316 C28.736031,30.9559125 31.011509,30.9797969 32.5391562,29.6556906 L48.6852659,15.6608587 C48.8866794,16.0639532 49,16.5187429 49,17 L49,40 C49,40.3716548 48.9324175,40.7275249 48.8088715,41.0559914 L37.0142921,30.6602577 C36.5999721,30.2950764 35.9680614,30.3349111 35.6028801,30.7492311 C35.2376988,31.1635511 35.2775335,31.7954617 35.6918535,32.1606431 L47.5206923,42.5865729 C47.0747882,42.8492939 46.5549938,43 46,43 L14,43 C13.494245,43 13.0177207,42.8748489 12.5997067,42.6538263 L24.5048485,32.1606431 C24.9191685,31.7954617 24.9590032,31.1635511 24.5938219,30.7492311 C24.2286406,30.3349111 23.5967299,30.2950764 23.1824099,30.6602577 L11.2426653,41.1839399 Z M47.2395387,14.2672441 L31.229213,28.1443836 C30.4653894,28.8064368 29.3276504,28.7944946 28.577892,28.1165541 L13.1132255,14.1332206 C13.393488,14.0466263 13.6912989,14 14,14 L46,14 C46.4420231,14 46.8617184,14.0955971 47.2395387,14.2672441 Z" transform="translate(-11 -14)"/>
</svg>
