<svg xmlns="http://www.w3.org/2000/svg" width="57" height="65" viewBox="0 0 57 65"><g fill="#FFF" fill-rule="evenodd" opacity=".276"><path d="M35.676 25.984c.216.225.51.352.815.352.306 0 .6-.127.816-.352a155.286 155.286 0 0 0 2.774-2.977c.566-.62 1.072-1.175 1.653-1.781.242-.253.365-.605.334-.961a1.217 1.217 0 0 0-.494-.882C36.269 15.563 30.907 4.658 29.39 1.405 29.095.775 28.52.36 27.854.292a1.859 1.859 0 0 0-1.704.787C22.774 5.778 10.972 21.61.835 28.081a1.237 1.237 0 0 0-.214 1.88c2.103 2.195 6.506 7.96 6.55 8.017.217.286.546.453.896.455h.006c.346 0 .675-.163.893-.443l18.558-23.736c1.295 2.546 4.088 7.485 8.152 11.73" opacity=".9"/><path d="M49.81 27.23a1.135 1.135 0 0 0-.895-.454 1.15 1.15 0 0 0-.9.443L29.457 50.954c-1.295-2.546-4.087-7.485-8.152-11.729a1.128 1.128 0 0 0-.815-.353c-.306 0-.6.127-.816.353-1.218 1.27-2.048 2.181-2.78 2.984-.565.617-1.068 1.17-1.646 1.774a1.236 1.236 0 0 0-.334.96c.031.357.212.68.494.883 5.305 3.82 10.666 14.725 12.183 17.977.295.631.87 1.047 1.536 1.113a1.865 1.865 0 0 0 1.704-.787c3.375-4.697 15.176-20.529 25.315-27.001a1.21 1.21 0 0 0 .544-.886 1.236 1.236 0 0 0-.33-.993c-2.103-2.196-6.505-7.961-6.55-8.02" opacity=".7"/></g></svg>